# xmcd
# Copyright (C) 1995-1998 Ti Kan
#
# Track frame offsets:
#       150
#       18788
#       34046
#       49432
#       67059
#       87898
#       103439
#       128171
#       145338
#       162749
#       178636
#       191690
#       209730
#       225185
#       246954
#       263326
#       283318
#
# Disc length: 4000 seconds
#
# Revision: 16
# Processed by: cddbd v1.5.1PL0 Copyright (c) Steve Scherf et al.
# Submitted via: CD-Transfer v1.0
#
DISCID=010f9e11
DTITLE=Usher and Alicia Keys - Euro Express 581
DYEAR=04
DGENRE=
TTITLE0=Glitter And Trauma
TTITLE1=Another White Dash
TTITLE2=Changes
TTITLE3=Car Wash (Radio)
TTITLE4=Troy (Kurz)
TTITLE5=Living La Vida Loca
TTITLE6=She
TTITLE7=Dj (Album Vers.)
TTITLE8=Sweet Dreams (Brent's 2004 Club Radio Edit)
TTITLE9=More More More
TTITLE10=Moving To Blackwater
TTITLE11=You (Album Vers.)
TTITLE12=How To Bew Dead
TTITLE13=You're Shining (Kb Project Mix)
TTITLE14=(Choopeta) Mamae Eu Quero
TTITLE15=Memphis Bells (Album Vers.)
TTITLE16=My Boo (Main)
EXTD=
EXTT0=
EXTT1=
EXTT2=
EXTT3=
EXTT4=
EXTT5=
EXTT6=
EXTT7=
EXTT8=
EXTT9=
EXTT10=
EXTT11=
EXTT12=
EXTT13=
EXTT14=
EXTT15=
EXTT16=
PLAYORDER=
